<svg width="258" height="32" viewBox="0 0 258 32" fill="none" xmlns="http://www.w3.org/2000/svg">
<g clip-path="url(#clip0_45_4509)">
<path d="M51.2087 0.922607H71.5076L53.9767 30.4484H33.6777L51.2087 0.922607Z" fill="#2F80ED"/>
<path d="M32.755 0.922607H47.5179L29.987 30.4484H15.2241L32.755 0.922607Z" fill="#87BAFF"/>
<path d="M17.9924 0.922607H29.0645L11.5336 30.4484H0.461426L17.9924 0.922607Z" fill="#BFDAFF"/>
</g>
<path d="M90.6167 18.8207H93.5902C93.5109 19.8732 93.219 20.8067 92.7144 21.6212C92.2098 22.4286 91.507 23.0629 90.6059 23.5242C89.7049 23.9856 88.6128 24.2163 87.3297 24.2163C86.3421 24.2163 85.4519 24.0433 84.659 23.6972C83.8732 23.344 83.1993 22.843 82.637 22.1943C82.0819 21.5383 81.6566 20.7526 81.3611 19.8371C81.0656 18.9144 80.9178 17.88 80.9178 16.7339V15.5337C80.9178 14.3875 81.0692 13.3531 81.3719 12.4305C81.6747 11.5078 82.1072 10.7221 82.6694 10.0733C83.2389 9.41732 83.9201 8.91273 84.713 8.55952C85.5132 8.20631 86.407 8.0297 87.3946 8.0297C88.6777 8.0297 89.7625 8.26758 90.6492 8.74333C91.5358 9.21188 92.2242 9.85704 92.7144 10.6788C93.2046 11.5006 93.5001 12.4449 93.601 13.5117H90.6276C90.5699 12.8485 90.4257 12.2863 90.195 11.8249C89.9716 11.3636 89.6328 11.014 89.1787 10.7761C88.7317 10.531 88.137 10.4085 87.3946 10.4085C86.8179 10.4085 86.3097 10.5166 85.87 10.7329C85.4375 10.9491 85.0771 11.2735 84.7887 11.706C84.5004 12.1313 84.2841 12.6647 84.14 13.3063C83.9958 13.9406 83.9237 14.6759 83.9237 15.5121V16.7339C83.9237 17.534 83.9886 18.2513 84.1183 18.8856C84.2481 19.52 84.4499 20.057 84.7238 20.4967C84.9978 20.9364 85.351 21.2716 85.7835 21.5023C86.216 21.7329 86.7314 21.8483 87.3297 21.8483C88.0577 21.8483 88.6488 21.7329 89.103 21.5023C89.5643 21.2716 89.9139 20.9328 90.1518 20.4859C90.3969 20.039 90.5519 19.4839 90.6167 18.8207ZM95.8933 8.25676H101.613C102.81 8.25676 103.837 8.43698 104.695 8.7974C105.553 9.15782 106.212 9.69124 106.674 10.3977C107.135 11.1041 107.366 11.9727 107.366 13.0035C107.366 13.8181 107.221 14.5245 106.933 15.1228C106.645 15.7211 106.237 16.2221 105.711 16.6258C105.192 17.0294 104.579 17.3466 103.873 17.5773L102.943 18.053H97.8937L97.872 15.7067H101.646C102.258 15.7067 102.767 15.5986 103.17 15.3823C103.574 15.1661 103.877 14.8669 104.079 14.4849C104.288 14.1028 104.392 13.6667 104.392 13.1765C104.392 12.6503 104.291 12.1962 104.089 11.8141C103.887 11.4249 103.581 11.1257 103.17 10.9167C102.759 10.7076 102.24 10.6031 101.613 10.6031H98.8668V24H95.8933V8.25676ZM104.781 24L101.137 16.9501L104.284 16.9393L107.971 23.8486V24H104.781ZM111.291 8.25676L114.751 15.5986L118.232 8.25676H121.498L116.264 18.2369V24H113.248V18.2369L108.003 8.25676H111.291ZM129.131 18.2585H125.077V15.9229H129.131C129.795 15.9229 130.332 15.8148 130.743 15.5986C131.161 15.3751 131.467 15.0723 131.662 14.6903C131.856 14.301 131.954 13.8577 131.954 13.3603C131.954 12.8774 131.856 12.4268 131.662 12.0088C131.467 11.5907 131.161 11.2519 130.743 10.9924C130.332 10.7329 129.795 10.6031 129.131 10.6031H126.05V24H123.076V8.25676H129.131C130.357 8.25676 131.402 8.47662 132.267 8.91634C133.139 9.34884 133.803 9.95075 134.257 10.7221C134.718 11.4861 134.949 12.3584 134.949 13.3387C134.949 14.3551 134.718 15.2309 134.257 15.9662C133.803 16.7015 133.139 17.2673 132.267 17.6638C131.402 18.0602 130.357 18.2585 129.131 18.2585ZM144.042 8.25676V24H141.079V8.25676H144.042ZM148.929 8.25676V10.6031H136.246V8.25676H148.929ZM163.354 15.7283V16.5393C163.354 17.7287 163.195 18.7991 162.878 19.7506C162.561 20.6949 162.11 21.4987 161.526 22.1618C160.942 22.825 160.247 23.3332 159.439 23.6864C158.632 24.0396 157.735 24.2163 156.747 24.2163C155.774 24.2163 154.88 24.0396 154.065 23.6864C153.258 23.3332 152.559 22.825 151.968 22.1618C151.377 21.4987 150.919 20.6949 150.595 19.7506C150.27 18.7991 150.108 17.7287 150.108 16.5393V15.7283C150.108 14.5317 150.27 13.4613 150.595 12.517C150.919 11.5726 151.373 10.7689 151.957 10.1057C152.541 9.43534 153.236 8.92355 154.044 8.57033C154.858 8.21712 155.752 8.04051 156.725 8.04051C157.713 8.04051 158.61 8.21712 159.418 8.57033C160.225 8.92355 160.921 9.43534 161.505 10.1057C162.096 10.7689 162.55 11.5726 162.867 12.517C163.191 13.4613 163.354 14.5317 163.354 15.7283ZM160.348 16.5393V15.7067C160.348 14.8489 160.268 14.0956 160.11 13.4468C159.951 12.7909 159.717 12.2394 159.407 11.7925C159.097 11.3456 158.715 11.0104 158.261 10.7869C157.807 10.5563 157.295 10.4409 156.725 10.4409C156.149 10.4409 155.637 10.5563 155.19 10.7869C154.75 11.0104 154.375 11.3456 154.065 11.7925C153.755 12.2394 153.518 12.7909 153.352 13.4468C153.193 14.0956 153.114 14.8489 153.114 15.7067V16.5393C153.114 17.3899 153.193 18.1431 153.352 18.7991C153.518 19.4551 153.755 20.0101 154.065 20.4643C154.383 20.9112 154.765 21.25 155.212 21.4806C155.659 21.7113 156.17 21.8267 156.747 21.8267C157.324 21.8267 157.835 21.7113 158.282 21.4806C158.729 21.25 159.104 20.9112 159.407 20.4643C159.717 20.0101 159.951 19.4551 160.11 18.7991C160.268 18.1431 160.348 17.3899 160.348 16.5393Z" fill="#2F80ED"/>
<path d="M177.442 18.2585H173.388V15.9229H177.442C178.106 15.9229 178.643 15.8148 179.053 15.5986C179.472 15.3751 179.778 15.0723 179.973 14.6903C180.167 14.301 180.265 13.8577 180.265 13.3603C180.265 12.8774 180.167 12.4268 179.973 12.0088C179.778 11.5907 179.472 11.2519 179.053 10.9924C178.643 10.7329 178.106 10.6031 177.442 10.6031H174.361V24H171.387V8.25676H177.442C178.668 8.25676 179.713 8.47662 180.578 8.91634C181.45 9.34884 182.113 9.95075 182.568 10.7221C183.029 11.4861 183.26 12.3584 183.26 13.3387C183.26 14.3551 183.029 15.2309 182.568 15.9662C182.113 16.7015 181.45 17.2673 180.578 17.6638C179.713 18.0602 178.668 18.2585 177.442 18.2585ZM195.586 21.6645V24H187.671V21.6645H195.586ZM188.569 8.25676V24H185.595V8.25676H188.569ZM204.052 10.6464L199.565 24H196.419L202.301 8.25676H204.312L204.052 10.6464ZM207.804 24L203.295 10.6464L203.025 8.25676H205.047L210.962 24H207.804ZM207.599 18.1504V20.4967H199.154V18.1504H207.599ZM225.234 8.25676V24H222.25L215.557 13.0792V24H212.584V8.25676H215.557L222.272 19.1884V8.25676H225.234ZM238.696 21.6645V24H230.327V21.6645H238.696ZM231.235 8.25676V24H228.262V8.25676H231.235ZM237.604 14.7552V17.0366H230.327V14.7552H237.604ZM238.664 8.25676V10.6031H230.327V8.25676H238.664ZM247.736 8.25676V24H244.773V8.25676H247.736ZM252.623 8.25676V10.6031H239.94V8.25676H252.623Z" fill="black"/>
<defs>
<clipPath id="clip0_45_4509">
<rect width="71.9691" height="29.5258" fill="white" transform="translate(0 0.922607)"/>
</clipPath>
</defs>
</svg>
